<svg id="Capa_1" enable-background="new 0 0 512 512" height="512" viewBox="0 0 512 512" width="512" xmlns="http://www.w3.org/2000/svg"><g><path d="m467 14.292h-422c-24.813 0-45 20.187-45 45v305c0 24.813 20.187 45 45 45h151.198l-13.189 58.416h-63.275v30h272.532v-30h-63.275l-13.189-58.416h151.198c24.813 0 45-20.187 45-45v-305c0-24.813-20.187-45-45-45zm-422 30h422c8.271 0 15 6.729 15 15v240h-452v-240c0-8.271 6.729-15 15-15zm240.047 365 13.189 58.416h-84.471l13.189-58.416zm181.953-30h-422c-8.271 0-15-6.729-15-15v-35h452v35c0 8.271-6.729 15-15 15z"/><path d="m134.582 156.792h142.836v30h-142.836z" transform="matrix(.707 -.707 .707 .707 -61.139 195.981)"/><path d="m234.582 156.792h142.836v30h-142.836z" transform="matrix(.707 -.707 .707 .707 -31.85 266.691)"/></g></svg>